<svg aria-hidden="true" focusable="false" data-prefix="fab" data-icon="discord" role="img" xmlns="http://www.w3.org/2000/svg" viewBox="0 0 448 512" class="svg-inline--fa fa-discord fa-w-14 fa-3x">
  <path fill="currentColor" d="M297.2 243.2c0 15.6-11.5 28.4-26.1 28.4-14.3 0-26.1-12.8-26.1-28.4s11.5-28.4 26.1-28.4c14.6 0 26.1 12.8 26.1 28.4zm-119.5-28.4c-14.6 0-26.1 12.8-26.1 28.4s11.7 28.4 26 28.4c14.7 0 26.2-12.8 26.2-28.4.2-15.6-11.5-28.4-26.1-28.4zM448 52.8V512c-64.5-57-43.9-38.1-118.8-107.8l13.6 47.4H52.5C23.5 451.6 0 428 0 398.8v-346A52.6 52.6 0 0152.5 0h343c29 0 52.5 23.6 52.5 52.7zm-73 242.6c0-82.4-36.8-149.2-36.8-149.2-36.9-27.7-72-26.9-72-26.9l-3.5 4c43.5 13.4 63.7 32.6 63.7 32.6a217.5 217.5 0 00-191.2-7.4c-9.5 4.3-15.1 7.4-15.1 7.4s21.2-20.2 67.3-33.5l-2.6-3.1s-35-.8-71.9 26.9c0 0-36.9 66.8-36.9 149.2 0 0 21.5 37.1 78.1 39 0 0 9.5-11.6 17.2-21.3-32.5-9.7-44.8-30.2-44.8-30.2 3.7 2.6 10 6 10.5 6.4a186.6 186.6 0 00189-6.3s-12.8 21-46.3 30.5c7.7 9.7 16.9 20.7 16.9 20.7 56.6-1.8 78.3-38.9 78.3-38.9z"/>
</svg>
