<svg xmlns="http://www.w3.org/2000/svg" xmlns:xlink="http://www.w3.org/1999/xlink" viewBox="0 0 75 93.75" version="1.1" x="0px" y="0px"><g><path fill="#8795a1" d="M 51.234375 44.144531 L 49 41.910156 C 51.882812 37.730469 53.582031 32.671875 53.582031 27.210938 C 53.582031 12.898438 41.980469 1.300781 27.671875 1.300781 C 13.359375 1.300781 1.757812 12.898438 1.757812 27.210938 C 1.757812 41.523438 13.359375 53.121094 27.667969 53.121094 C 32.652344 53.121094 37.289062 51.691406 41.242188 49.25 L 43.683594 51.691406 Z M 27.667969 47.394531 C 16.523438 47.394531 7.484375 38.359375 7.484375 27.210938 C 7.484375 16.0625 16.523438 7.027344 27.667969 7.027344 C 38.816406 7.027344 47.851562 16.0625 47.851562 27.210938 C 47.851562 38.359375 38.816406 47.394531 27.667969 47.394531 Z M 27.667969 47.394531 " stroke="none" fill-rule="nonzero" fill-opacity="1"/><path fill="#8795a1" d="M 72.328125 65.238281 L 53.445312 46.351562 L 45.894531 53.902344 L 64.777344 72.789062 C 65.996094 74.007812 67.976562 74.007812 69.195312 72.789062 L 72.328125 69.65625 C 73.546875 68.4375 73.546875 66.457031 72.328125 65.238281 Z M 72.328125 65.238281 " stroke="none" fill-rule="nonzero" fill-opacity="1"/></g></svg>